<svg width="20" height="20" viewBox="0 0 20 20" fill="none" xmlns="http://www.w3.org/2000/svg">
<path d="M6.19994 1.76001C3.79994 2.88001 2.71994 4.00001 1.63994 6.40001C0.199937 9.56001 0.879937 13.72 3.31994 16.36C4.63994 17.8 7.91994 19.2 9.99994 19.2C12.0799 19.2 15.3599 17.8 16.6799 16.36C18.0399 14.88 19.1999 11.96 19.1999 10C19.1999 7.92001 17.7999 4.64001 16.3599 3.32001C14.8799 1.96001 11.9599 0.800011 9.99994 0.800011C8.91994 0.800011 7.39994 1.20001 6.19994 1.76001ZM13.3999 2.36001C16.4399 3.72001 18.3999 6.88001 18.3999 10.4C18.3999 12.04 17.0799 15.12 16.2399 15.44C15.9199 15.56 14.8399 15.28 13.8399 14.84C11.7599 13.92 11.5599 13.32 12.7999 11.28C13.6799 9.88001 13.9199 6.12001 13.1999 4.84001C12.2399 3.00001 8.19994 2.80001 6.99994 4.52001C6.07994 5.80001 6.19994 9.68001 7.19994 11.28C8.43994 13.32 8.23994 13.92 6.15994 14.84C5.15994 15.28 4.07994 15.56 3.75994 15.44C2.83994 15.08 1.59994 12 1.59994 10.08C1.55994 4.04001 7.95994 -0.119989 13.3999 2.36001Z" fill="white"/>
</svg>
